<?xml version="1.0" encoding="UTF-8" standalone="no"?>
<!DOCTYPE svg PUBLIC "-//W3C//DTD SVG 1.1//EN"
 "http://www.w3.org/Graphics/SVG/1.1/DTD/svg11.dtd">
<!-- Generated by graphviz version 2.43.0 (0)
 -->
<!-- Title: environmentals Pages: 1 -->
<svg width="2928pt" height="548pt"
 viewBox="0.00 0.00 2928.39 548.00" xmlns="http://www.w3.org/2000/svg" xmlns:xlink="http://www.w3.org/1999/xlink">
<g id="graph0" class="graph" transform="scale(1 1) rotate(0) translate(4 544)">
<title>environmentals</title>
<polygon fill="white" stroke="transparent" points="-4,4 -4,-544 2924.39,-544 2924.39,4 -4,4"/>
<!-- ENV -->
<g id="node1" class="node">
<title>ENV</title>
<ellipse fill="none" stroke="black" cx="964" cy="-450" rx="31.7" ry="18"/>
<text text-anchor="middle" x="964" y="-446.3" font-family="Times,serif" font-size="14.00">ENV</text>
</g>
<!-- ENV__ATMO -->
<g id="node2" class="node">
<title>ENV__ATMO</title>
<ellipse fill="none" stroke="black" cx="355" cy="-378" rx="39.79" ry="18"/>
<text text-anchor="middle" x="355" y="-374.3" font-family="Times,serif" font-size="14.00">ATMO</text>
</g>
<!-- ENV&#45;&gt;ENV__ATMO -->
<g id="edge5" class="edge">
<title>ENV&#45;&gt;ENV__ATMO</title>
<path fill="none" stroke="black" d="M932.96,-445.43C833.69,-434.02 523.41,-398.36 403.23,-384.54"/>
<polygon fill="black" stroke="black" points="403.55,-381.06 393.21,-383.39 402.75,-388.01 403.55,-381.06"/>
</g>
<!-- ENV__SOIL -->
<g id="node16" class="node">
<title>ENV__SOIL</title>
<ellipse fill="none" stroke="black" cx="964" cy="-378" rx="33.6" ry="18"/>
<text text-anchor="middle" x="964" y="-374.3" font-family="Times,serif" font-size="14.00">SOIL</text>
</g>
<!-- ENV&#45;&gt;ENV__SOIL -->
<g id="edge6" class="edge">
<title>ENV&#45;&gt;ENV__SOIL</title>
<path fill="none" stroke="black" d="M964,-431.7C964,-423.98 964,-414.71 964,-406.11"/>
<polygon fill="black" stroke="black" points="967.5,-406.1 964,-396.1 960.5,-406.1 967.5,-406.1"/>
</g>
<!-- ENV__ATMO__T -->
<g id="node3" class="node">
<title>ENV__ATMO__T</title>
<ellipse fill="none" stroke="black" cx="27" cy="-306" rx="27" ry="18"/>
<text text-anchor="middle" x="27" y="-302.3" font-family="Times,serif" font-size="14.00">T</text>
</g>
<!-- ENV__ATMO&#45;&gt;ENV__ATMO__T -->
<g id="edge7" class="edge">
<title>ENV__ATMO&#45;&gt;ENV__ATMO__T</title>
<path fill="none" stroke="black" d="M316.42,-373.25C259.79,-367.02 151.31,-352.32 63,-324 61.07,-323.38 59.12,-322.68 57.17,-321.93"/>
<polygon fill="black" stroke="black" points="58.14,-318.54 47.56,-317.84 55.39,-324.98 58.14,-318.54"/>
</g>
<!-- ENV__ATMO__P -->
<g id="node4" class="node">
<title>ENV__ATMO__P</title>
<ellipse fill="none" stroke="black" cx="99" cy="-306" rx="27" ry="18"/>
<text text-anchor="middle" x="99" y="-302.3" font-family="Times,serif" font-size="14.00">P</text>
</g>
<!-- ENV__ATMO&#45;&gt;ENV__ATMO__P -->
<g id="edge8" class="edge">
<title>ENV__ATMO&#45;&gt;ENV__ATMO__P</title>
<path fill="none" stroke="black" d="M318.52,-370.59C274.34,-362.29 197.99,-346.2 135,-324 133.09,-323.33 131.15,-322.59 129.21,-321.8"/>
<polygon fill="black" stroke="black" points="130.2,-318.42 119.64,-317.63 127.4,-324.83 130.2,-318.42"/>
</g>
<!-- ENV__ATMO__RH -->
<g id="node5" class="node">
<title>ENV__ATMO__RH</title>
<ellipse fill="none" stroke="black" cx="171" cy="-306" rx="27" ry="18"/>
<text text-anchor="middle" x="171" y="-302.3" font-family="Times,serif" font-size="14.00">RH</text>
</g>
<!-- ENV__ATMO&#45;&gt;ENV__ATMO__RH -->
<g id="edge9" class="edge">
<title>ENV__ATMO&#45;&gt;ENV__ATMO__RH</title>
<path fill="none" stroke="black" d="M323.77,-366.8C293.58,-356.71 246.72,-340.44 207,-324 205.18,-323.25 203.32,-322.45 201.45,-321.63"/>
<polygon fill="black" stroke="black" points="202.72,-318.36 192.17,-317.41 199.82,-324.74 202.72,-318.36"/>
</g>
<!-- ENV__ATMO__IRRADIATION -->
<g id="node6" class="node">
<title>ENV__ATMO__IRRADIATION</title>
<ellipse fill="none" stroke="black" cx="291" cy="-306" rx="75.29" ry="18"/>
<text text-anchor="middle" x="291" y="-302.3" font-family="Times,serif" font-size="14.00">IRRADIATION</text>
</g>
<!-- ENV__ATMO&#45;&gt;ENV__ATMO__IRRADIATION -->
<g id="edge10" class="edge">
<title>ENV__ATMO&#45;&gt;ENV__ATMO__IRRADIATION</title>
<path fill="none" stroke="black" d="M340.48,-361.12C332.45,-352.33 322.29,-341.23 313.28,-331.37"/>
<polygon fill="black" stroke="black" points="315.69,-328.82 306.36,-323.8 310.52,-333.54 315.69,-328.82"/>
</g>
<!-- ENV__ATMO__RAIN -->
<g id="node7" class="node">
<title>ENV__ATMO__RAIN</title>
<ellipse fill="none" stroke="black" cx="419" cy="-306" rx="35.19" ry="18"/>
<text text-anchor="middle" x="419" y="-302.3" font-family="Times,serif" font-size="14.00">RAIN</text>
</g>
<!-- ENV__ATMO&#45;&gt;ENV__ATMO__RAIN -->
<g id="edge11" class="edge">
<title>ENV__ATMO&#45;&gt;ENV__ATMO__RAIN</title>
<path fill="none" stroke="black" d="M369.52,-361.12C377.87,-351.99 388.5,-340.36 397.77,-330.22"/>
<polygon fill="black" stroke="black" points="400.37,-332.56 404.53,-322.82 395.2,-327.84 400.37,-332.56"/>
</g>
<!-- ENV__ATMO__WIND -->
<g id="node8" class="node">
<title>ENV__ATMO__WIND</title>
<ellipse fill="none" stroke="black" cx="510" cy="-306" rx="38.19" ry="18"/>
<text text-anchor="middle" x="510" y="-302.3" font-family="Times,serif" font-size="14.00">WIND</text>
</g>
<!-- ENV__ATMO&#45;&gt;ENV__ATMO__WIND -->
<g id="edge12" class="edge">
<title>ENV__ATMO&#45;&gt;ENV__ATMO__WIND</title>
<path fill="none" stroke="black" d="M382,-364.81C407.45,-353.31 445.76,-336.01 473.84,-323.33"/>
<polygon fill="black" stroke="black" points="475.64,-326.36 483.31,-319.05 472.76,-319.98 475.64,-326.36"/>
</g>
<!-- ENV__ATMO__SNOW -->
<g id="node12" class="node">
<title>ENV__ATMO__SNOW</title>
<ellipse fill="none" stroke="black" cx="644" cy="-306" rx="41.69" ry="18"/>
<text text-anchor="middle" x="644" y="-302.3" font-family="Times,serif" font-size="14.00">SNOW</text>
</g>
<!-- ENV__ATMO&#45;&gt;ENV__ATMO__SNOW -->
<g id="edge13" class="edge">
<title>ENV__ATMO&#45;&gt;ENV__ATMO__SNOW</title>
<path fill="none" stroke="black" d="M389.29,-368.7C441.33,-356.09 540.35,-332.11 598.41,-318.04"/>
<polygon fill="black" stroke="black" points="599.51,-321.38 608.4,-315.62 597.86,-314.57 599.51,-321.38"/>
</g>
<!-- ENV__ATMO__WIND__SPEED -->
<g id="node9" class="node">
<title>ENV__ATMO__WIND__SPEED</title>
<ellipse fill="none" stroke="black" cx="226" cy="-234" rx="44.39" ry="18"/>
<text text-anchor="middle" x="226" y="-230.3" font-family="Times,serif" font-size="14.00">SPEED</text>
</g>
<!-- ENV__ATMO__WIND&#45;&gt;ENV__ATMO__WIND__SPEED -->
<g id="edge14" class="edge">
<title>ENV__ATMO__WIND&#45;&gt;ENV__ATMO__WIND__SPEED</title>
<path fill="none" stroke="black" d="M481.39,-293.86C475.37,-291.74 469.02,-289.67 463,-288 382.69,-265.76 359.7,-272.76 279,-252 275.62,-251.13 272.14,-250.17 268.66,-249.16"/>
<polygon fill="black" stroke="black" points="269.49,-245.75 258.9,-246.21 267.47,-252.45 269.49,-245.75"/>
</g>
<!-- ENV__ATMO__WIND__GUSTINESS -->
<g id="node10" class="node">
<title>ENV__ATMO__WIND__GUSTINESS</title>
<ellipse fill="none" stroke="black" cx="357" cy="-234" rx="68.79" ry="18"/>
<text text-anchor="middle" x="357" y="-230.3" font-family="Times,serif" font-size="14.00">GUSTINESS</text>
</g>
<!-- ENV__ATMO__WIND&#45;&gt;ENV__ATMO__WIND__GUSTINESS -->
<g id="edge15" class="edge">
<title>ENV__ATMO__WIND&#45;&gt;ENV__ATMO__WIND__GUSTINESS</title>
<path fill="none" stroke="black" d="M483.35,-292.81C460.07,-282.15 425.87,-266.51 398.93,-254.18"/>
<polygon fill="black" stroke="black" points="400.28,-250.95 389.73,-249.97 397.37,-257.32 400.28,-250.95"/>
</g>
<!-- ENV__ATMO__WIND__DIRECTION -->
<g id="node11" class="node">
<title>ENV__ATMO__WIND__DIRECTION</title>
<ellipse fill="none" stroke="black" cx="510" cy="-234" rx="66.09" ry="18"/>
<text text-anchor="middle" x="510" y="-230.3" font-family="Times,serif" font-size="14.00">DIRECTION</text>
</g>
<!-- ENV__ATMO__WIND&#45;&gt;ENV__ATMO__WIND__DIRECTION -->
<g id="edge16" class="edge">
<title>ENV__ATMO__WIND&#45;&gt;ENV__ATMO__WIND__DIRECTION</title>
<path fill="none" stroke="black" d="M510,-287.7C510,-279.98 510,-270.71 510,-262.11"/>
<polygon fill="black" stroke="black" points="513.5,-262.1 510,-252.1 506.5,-262.1 513.5,-262.1"/>
</g>
<!-- ENV__ATMO__SNOW__HEIGHT -->
<g id="node13" class="node">
<title>ENV__ATMO__SNOW__HEIGHT</title>
<ellipse fill="none" stroke="black" cx="644" cy="-234" rx="50.09" ry="18"/>
<text text-anchor="middle" x="644" y="-230.3" font-family="Times,serif" font-size="14.00">HEIGHT</text>
</g>
<!-- ENV__ATMO__SNOW&#45;&gt;ENV__ATMO__SNOW__HEIGHT -->
<g id="edge17" class="edge">
<title>ENV__ATMO__SNOW&#45;&gt;ENV__ATMO__SNOW__HEIGHT</title>
<path fill="none" stroke="black" d="M644,-287.7C644,-279.98 644,-270.71 644,-262.11"/>
<polygon fill="black" stroke="black" points="647.5,-262.1 644,-252.1 640.5,-262.1 647.5,-262.1"/>
</g>
<!-- ENV__ATMO__SNOW__INSULATION -->
<g id="node14" class="node">
<title>ENV__ATMO__SNOW__INSULATION</title>
<ellipse fill="none" stroke="black" cx="785" cy="-234" rx="72.59" ry="18"/>
<text text-anchor="middle" x="785" y="-230.3" font-family="Times,serif" font-size="14.00">INSULATION</text>
</g>
<!-- ENV__ATMO__SNOW&#45;&gt;ENV__ATMO__SNOW__INSULATION -->
<g id="edge18" class="edge">
<title>ENV__ATMO__SNOW&#45;&gt;ENV__ATMO__SNOW__INSULATION</title>
<path fill="none" stroke="black" d="M670.19,-292C691.14,-281.6 720.87,-266.84 744.83,-254.94"/>
<polygon fill="black" stroke="black" points="746.63,-257.95 754.03,-250.37 743.52,-251.69 746.63,-257.95"/>
</g>
<!-- ENV__ATMO__SNOW__MELT -->
<g id="node15" class="node">
<title>ENV__ATMO__SNOW__MELT</title>
<ellipse fill="none" stroke="black" cx="914" cy="-234" rx="38.19" ry="18"/>
<text text-anchor="middle" x="914" y="-230.3" font-family="Times,serif" font-size="14.00">MELT</text>
</g>
<!-- ENV__ATMO__SNOW&#45;&gt;ENV__ATMO__SNOW__MELT -->
<g id="edge19" class="edge">
<title>ENV__ATMO__SNOW&#45;&gt;ENV__ATMO__SNOW__MELT</title>
<path fill="none" stroke="black" d="M675.11,-294C681.64,-291.87 688.51,-289.75 695,-288 770.39,-267.62 791.87,-273.34 867,-252 869.91,-251.17 872.9,-250.26 875.89,-249.29"/>
<polygon fill="black" stroke="black" points="877.03,-252.6 885.38,-246.08 874.78,-245.97 877.03,-252.6"/>
</g>
<!-- ENV__SOIL__T -->
<g id="node17" class="node">
<title>ENV__SOIL__T</title>
<ellipse fill="none" stroke="black" cx="731" cy="-306" rx="27" ry="18"/>
<text text-anchor="middle" x="731" y="-302.3" font-family="Times,serif" font-size="14.00">T</text>
</g>
<!-- ENV__SOIL&#45;&gt;ENV__SOIL__T -->
<g id="edge20" class="edge">
<title>ENV__SOIL&#45;&gt;ENV__SOIL__T</title>
<path fill="none" stroke="black" d="M933.1,-370.49C893.86,-361.81 824.35,-345.06 767,-324 765.15,-323.32 763.27,-322.58 761.38,-321.81"/>
<polygon fill="black" stroke="black" points="762.62,-318.53 752.05,-317.71 759.8,-324.93 762.62,-318.53"/>
</g>
<!-- ENV__SOIL__EC -->
<g id="node18" class="node">
<title>ENV__SOIL__EC</title>
<ellipse fill="none" stroke="black" cx="803" cy="-306" rx="27" ry="18"/>
<text text-anchor="middle" x="803" y="-302.3" font-family="Times,serif" font-size="14.00">EC</text>
</g>
<!-- ENV__SOIL&#45;&gt;ENV__SOIL__EC -->
<g id="edge21" class="edge">
<title>ENV__SOIL&#45;&gt;ENV__SOIL__EC</title>
<path fill="none" stroke="black" d="M938.01,-366.34C912.64,-355.84 872.99,-339.22 839,-324 837.2,-323.19 835.36,-322.36 833.5,-321.51"/>
<polygon fill="black" stroke="black" points="834.8,-318.25 824.25,-317.21 831.85,-324.6 834.8,-318.25"/>
</g>
<!-- ENV__SOIL__NORM_ER -->
<g id="node19" class="node">
<title>ENV__SOIL__NORM_ER</title>
<ellipse fill="none" stroke="black" cx="908" cy="-306" rx="59.59" ry="18"/>
<text text-anchor="middle" x="908" y="-302.3" font-family="Times,serif" font-size="14.00">NORM_ER</text>
</g>
<!-- ENV__SOIL&#45;&gt;ENV__SOIL__NORM_ER -->
<g id="edge22" class="edge">
<title>ENV__SOIL&#45;&gt;ENV__SOIL__NORM_ER</title>
<path fill="none" stroke="black" d="M951.29,-361.12C944.33,-352.42 935.56,-341.45 927.73,-331.66"/>
<polygon fill="black" stroke="black" points="930.42,-329.42 921.44,-323.8 924.95,-333.79 930.42,-329.42"/>
</g>
<!-- ENV__SOIL__VWC -->
<g id="node20" class="node">
<title>ENV__SOIL__VWC</title>
<ellipse fill="none" stroke="black" cx="1019" cy="-306" rx="33.29" ry="18"/>
<text text-anchor="middle" x="1019" y="-302.3" font-family="Times,serif" font-size="14.00">VWC</text>
</g>
<!-- ENV__SOIL&#45;&gt;ENV__SOIL__VWC -->
<g id="edge23" class="edge">
<title>ENV__SOIL&#45;&gt;ENV__SOIL__VWC</title>
<path fill="none" stroke="black" d="M976.48,-361.12C983.51,-352.17 992.43,-340.81 1000.29,-330.81"/>
<polygon fill="black" stroke="black" points="1003.14,-332.85 1006.57,-322.82 997.64,-328.52 1003.14,-332.85"/>
</g>
<!-- ENV__SOIL__MATRIX_POTENTIAL -->
<g id="node21" class="node">
<title>ENV__SOIL__MATRIX_POTENTIAL</title>
<ellipse fill="none" stroke="black" cx="1179" cy="-306" rx="108.58" ry="18"/>
<text text-anchor="middle" x="1179" y="-302.3" font-family="Times,serif" font-size="14.00">MATRIX_POTENTIAL</text>
</g>
<!-- ENV__SOIL&#45;&gt;ENV__SOIL__MATRIX_POTENTIAL -->
<g id="edge24" class="edge">
<title>ENV__SOIL&#45;&gt;ENV__SOIL__MATRIX_POTENTIAL</title>
<path fill="none" stroke="black" d="M992.11,-367.85C1025.05,-357.12 1080.48,-339.08 1122.44,-325.41"/>
<polygon fill="black" stroke="black" points="1123.56,-328.73 1131.98,-322.31 1121.39,-322.08 1123.56,-328.73"/>
</g>
<!-- ENV__SOIL__CAPACITANCE -->
<g id="node22" class="node">
<title>ENV__SOIL__CAPACITANCE</title>
<ellipse fill="none" stroke="black" cx="1385" cy="-306" rx="79.89" ry="18"/>
<text text-anchor="middle" x="1385" y="-302.3" font-family="Times,serif" font-size="14.00">CAPACITANCE</text>
</g>
<!-- ENV__SOIL&#45;&gt;ENV__SOIL__CAPACITANCE -->
<g id="edge25" class="edge">
<title>ENV__SOIL&#45;&gt;ENV__SOIL__CAPACITANCE</title>
<path fill="none" stroke="black" d="M996.21,-372.24C1055.71,-363.35 1186.88,-343.39 1297,-324 1303.49,-322.86 1310.23,-321.63 1316.98,-320.37"/>
<polygon fill="black" stroke="black" points="1317.65,-323.81 1326.83,-318.52 1316.35,-316.93 1317.65,-323.81"/>
</g>
<!-- ENV__SOIL__CAPACITANCE__ABSOLUTE -->
<g id="node23" class="node">
<title>ENV__SOIL__CAPACITANCE__ABSOLUTE</title>
<ellipse fill="none" stroke="black" cx="1076" cy="-234" rx="63.89" ry="18"/>
<text text-anchor="middle" x="1076" y="-230.3" font-family="Times,serif" font-size="14.00">ABSOLUTE</text>
</g>
<!-- ENV__SOIL__CAPACITANCE&#45;&gt;ENV__SOIL__CAPACITANCE__ABSOLUTE -->
<g id="edge26" class="edge">
<title>ENV__SOIL__CAPACITANCE&#45;&gt;ENV__SOIL__CAPACITANCE__ABSOLUTE</title>
<path fill="none" stroke="black" d="M1330.13,-292.81C1282.28,-282.14 1211.02,-266.18 1149,-252 1143.98,-250.85 1138.76,-249.65 1133.53,-248.44"/>
<polygon fill="black" stroke="black" points="1134.03,-244.97 1123.5,-246.12 1132.45,-251.79 1134.03,-244.97"/>
</g>
<!-- ENV__SOIL__CAPACITANCE__DIFFERENTIAL -->
<g id="node24" class="node">
<title>ENV__SOIL__CAPACITANCE__DIFFERENTIAL</title>
<ellipse fill="none" stroke="black" cx="1242" cy="-234" rx="83.69" ry="18"/>
<text text-anchor="middle" x="1242" y="-230.3" font-family="Times,serif" font-size="14.00">DIFFERENTIAL</text>
</g>
<!-- ENV__SOIL__CAPACITANCE&#45;&gt;ENV__SOIL__CAPACITANCE__DIFFERENTIAL -->
<g id="edge27" class="edge">
<title>ENV__SOIL__CAPACITANCE&#45;&gt;ENV__SOIL__CAPACITANCE__DIFFERENTIAL</title>
<path fill="none" stroke="black" d="M1353.26,-289.46C1332.67,-279.39 1305.63,-266.15 1283.36,-255.25"/>
<polygon fill="black" stroke="black" points="1284.66,-251.99 1274.14,-250.73 1281.58,-258.27 1284.66,-251.99"/>
</g>
<!-- ENV__SOIL__CAPACITANCE__LEG_A -->
<g id="node25" class="node">
<title>ENV__SOIL__CAPACITANCE__LEG_A</title>
<ellipse fill="none" stroke="black" cx="1385" cy="-234" rx="41.69" ry="18"/>
<text text-anchor="middle" x="1385" y="-230.3" font-family="Times,serif" font-size="14.00">LEG_A</text>
</g>
<!-- ENV__SOIL__CAPACITANCE&#45;&gt;ENV__SOIL__CAPACITANCE__LEG_A -->
<g id="edge28" class="edge">
<title>ENV__SOIL__CAPACITANCE&#45;&gt;ENV__SOIL__CAPACITANCE__LEG_A</title>
<path fill="none" stroke="black" d="M1385,-287.7C1385,-279.98 1385,-270.71 1385,-262.11"/>
<polygon fill="black" stroke="black" points="1388.5,-262.1 1385,-252.1 1381.5,-262.1 1388.5,-262.1"/>
</g>
<!-- ENV__SOIL__CAPACITANCE__LEG_B -->
<g id="node26" class="node">
<title>ENV__SOIL__CAPACITANCE__LEG_B</title>
<ellipse fill="none" stroke="black" cx="1487" cy="-234" rx="42.49" ry="18"/>
<text text-anchor="middle" x="1487" y="-230.3" font-family="Times,serif" font-size="14.00">LEG_B</text>
</g>
<!-- ENV__SOIL__CAPACITANCE&#45;&gt;ENV__SOIL__CAPACITANCE__LEG_B -->
<g id="edge29" class="edge">
<title>ENV__SOIL__CAPACITANCE&#45;&gt;ENV__SOIL__CAPACITANCE__LEG_B</title>
<path fill="none" stroke="black" d="M1408.66,-288.76C1423.02,-278.91 1441.5,-266.23 1456.9,-255.66"/>
<polygon fill="black" stroke="black" points="1459.29,-258.26 1465.56,-249.72 1455.33,-252.49 1459.29,-258.26"/>
</g>
<!-- ENV__SOIL__CAPACITANCE__OFFSET -->
<g id="node27" class="node">
<title>ENV__SOIL__CAPACITANCE__OFFSET</title>
<ellipse fill="none" stroke="black" cx="1597" cy="-234" rx="50.09" ry="18"/>
<text text-anchor="middle" x="1597" y="-230.3" font-family="Times,serif" font-size="14.00">OFFSET</text>
</g>
<!-- ENV__SOIL__CAPACITANCE&#45;&gt;ENV__SOIL__CAPACITANCE__OFFSET -->
<g id="edge30" class="edge">
<title>ENV__SOIL__CAPACITANCE&#45;&gt;ENV__SOIL__CAPACITANCE__OFFSET</title>
<path fill="none" stroke="black" d="M1428.16,-290.75C1464.01,-278.91 1514.88,-262.12 1551.4,-250.06"/>
<polygon fill="black" stroke="black" points="1552.89,-253.25 1561.29,-246.79 1550.7,-246.6 1552.89,-253.25"/>
</g>
<!-- DEV -->
<g id="node28" class="node">
<title>DEV</title>
<ellipse fill="none" stroke="black" cx="2104" cy="-450" rx="31.4" ry="18"/>
<text text-anchor="middle" x="2104" y="-446.3" font-family="Times,serif" font-size="14.00">DEV</text>
</g>
<!-- DEV__ENERGY -->
<g id="node29" class="node">
<title>DEV__ENERGY</title>
<ellipse fill="none" stroke="black" cx="1637" cy="-378" rx="51.99" ry="18"/>
<text text-anchor="middle" x="1637" y="-374.3" font-family="Times,serif" font-size="14.00">ENERGY</text>
</g>
<!-- DEV&#45;&gt;DEV__ENERGY -->
<g id="edge31" class="edge">
<title>DEV&#45;&gt;DEV__ENERGY</title>
<path fill="none" stroke="black" d="M2074.08,-444.51C1997.49,-433.03 1793.41,-402.44 1693.58,-387.48"/>
<polygon fill="black" stroke="black" points="1694.08,-384.02 1683.67,-386 1693.04,-390.94 1694.08,-384.02"/>
</g>
<!-- DEV__ALERT -->
<g id="node32" class="node">
<title>DEV__ALERT</title>
<ellipse fill="none" stroke="black" cx="1923" cy="-378" rx="42.49" ry="18"/>
<text text-anchor="middle" x="1923" y="-374.3" font-family="Times,serif" font-size="14.00">ALERT</text>
</g>
<!-- DEV&#45;&gt;DEV__ALERT -->
<g id="edge32" class="edge">
<title>DEV&#45;&gt;DEV__ALERT</title>
<path fill="none" stroke="black" d="M2078.83,-439.27C2048.82,-427.66 1998.29,-408.12 1962.93,-394.44"/>
<polygon fill="black" stroke="black" points="1963.97,-391.09 1953.38,-390.75 1961.45,-397.62 1963.97,-391.09"/>
</g>
<!-- DEV__POSITION -->
<g id="node35" class="node">
<title>DEV__POSITION</title>
<ellipse fill="none" stroke="black" cx="2104" cy="-378" rx="58.49" ry="18"/>
<text text-anchor="middle" x="2104" y="-374.3" font-family="Times,serif" font-size="14.00">POSITION</text>
</g>
<!-- DEV&#45;&gt;DEV__POSITION -->
<g id="edge33" class="edge">
<title>DEV&#45;&gt;DEV__POSITION</title>
<path fill="none" stroke="black" d="M2104,-431.7C2104,-423.98 2104,-414.71 2104,-406.11"/>
<polygon fill="black" stroke="black" points="2107.5,-406.1 2104,-396.1 2100.5,-406.1 2107.5,-406.1"/>
</g>
<!-- DEV__RF -->
<g id="node38" class="node">
<title>DEV__RF</title>
<ellipse fill="none" stroke="black" cx="2362" cy="-378" rx="27" ry="18"/>
<text text-anchor="middle" x="2362" y="-374.3" font-family="Times,serif" font-size="14.00">RF</text>
</g>
<!-- DEV&#45;&gt;DEV__RF -->
<g id="edge34" class="edge">
<title>DEV&#45;&gt;DEV__RF</title>
<path fill="none" stroke="black" d="M2131.61,-441.51C2179.02,-428.65 2275.78,-402.39 2327.53,-388.35"/>
<polygon fill="black" stroke="black" points="2328.52,-391.71 2337.25,-385.71 2326.69,-384.95 2328.52,-391.71"/>
</g>
<!-- DEV__ENERGY__VCAP -->
<g id="node30" class="node">
<title>DEV__ENERGY__VCAP</title>
<ellipse fill="none" stroke="black" cx="1519" cy="-306" rx="36.29" ry="18"/>
<text text-anchor="middle" x="1519" y="-302.3" font-family="Times,serif" font-size="14.00">VCAP</text>
</g>
<!-- DEV__ENERGY&#45;&gt;DEV__ENERGY__VCAP -->
<g id="edge35" class="edge">
<title>DEV__ENERGY&#45;&gt;DEV__ENERGY__VCAP</title>
<path fill="none" stroke="black" d="M1611.98,-362.15C1593.99,-351.48 1569.61,-337.02 1550.33,-325.58"/>
<polygon fill="black" stroke="black" points="1551.98,-322.5 1541.59,-320.4 1548.41,-328.52 1551.98,-322.5"/>
</g>
<!-- DEV__ENERGY__LOWLIGHT -->
<g id="node31" class="node">
<title>DEV__ENERGY__LOWLIGHT</title>
<ellipse fill="none" stroke="black" cx="1637" cy="-306" rx="63.89" ry="18"/>
<text text-anchor="middle" x="1637" y="-302.3" font-family="Times,serif" font-size="14.00">LOWLIGHT</text>
</g>
<!-- DEV__ENERGY&#45;&gt;DEV__ENERGY__LOWLIGHT -->
<g id="edge36" class="edge">
<title>DEV__ENERGY&#45;&gt;DEV__ENERGY__LOWLIGHT</title>
<path fill="none" stroke="black" d="M1637,-359.7C1637,-351.98 1637,-342.71 1637,-334.11"/>
<polygon fill="black" stroke="black" points="1640.5,-334.1 1637,-324.1 1633.5,-334.1 1640.5,-334.1"/>
</g>
<!-- DEV__ALERT__TRIGGERED -->
<g id="node33" class="node">
<title>DEV__ALERT__TRIGGERED</title>
<ellipse fill="none" stroke="black" cx="1788" cy="-306" rx="69.59" ry="18"/>
<text text-anchor="middle" x="1788" y="-302.3" font-family="Times,serif" font-size="14.00">TRIGGERED</text>
</g>
<!-- DEV__ALERT&#45;&gt;DEV__ALERT__TRIGGERED -->
<g id="edge37" class="edge">
<title>DEV__ALERT&#45;&gt;DEV__ALERT__TRIGGERED</title>
<path fill="none" stroke="black" d="M1897.29,-363.67C1877.39,-353.35 1849.49,-338.89 1826.87,-327.15"/>
<polygon fill="black" stroke="black" points="1828.34,-323.97 1817.85,-322.48 1825.12,-330.19 1828.34,-323.97"/>
</g>
<!-- DEV__ALERT__ARMED -->
<g id="node34" class="node">
<title>DEV__ALERT__ARMED</title>
<ellipse fill="none" stroke="black" cx="1923" cy="-306" rx="47.39" ry="18"/>
<text text-anchor="middle" x="1923" y="-302.3" font-family="Times,serif" font-size="14.00">ARMED</text>
</g>
<!-- DEV__ALERT&#45;&gt;DEV__ALERT__ARMED -->
<g id="edge38" class="edge">
<title>DEV__ALERT&#45;&gt;DEV__ALERT__ARMED</title>
<path fill="none" stroke="black" d="M1923,-359.7C1923,-351.98 1923,-342.71 1923,-334.11"/>
<polygon fill="black" stroke="black" points="1926.5,-334.1 1923,-324.1 1919.5,-334.1 1926.5,-334.1"/>
</g>
<!-- DEV__POSITION__LATITUDE -->
<g id="node36" class="node">
<title>DEV__POSITION__LATITUDE</title>
<ellipse fill="none" stroke="black" cx="2048" cy="-306" rx="59.59" ry="18"/>
<text text-anchor="middle" x="2048" y="-302.3" font-family="Times,serif" font-size="14.00">LATITUDE</text>
</g>
<!-- DEV__POSITION&#45;&gt;DEV__POSITION__LATITUDE -->
<g id="edge39" class="edge">
<title>DEV__POSITION&#45;&gt;DEV__POSITION__LATITUDE</title>
<path fill="none" stroke="black" d="M2090.73,-360.41C2083.92,-351.91 2075.5,-341.37 2067.93,-331.91"/>
<polygon fill="black" stroke="black" points="2070.55,-329.58 2061.56,-323.96 2065.08,-333.95 2070.55,-329.58"/>
</g>
<!-- DEV__POSITION__LONGITUDE -->
<g id="node37" class="node">
<title>DEV__POSITION__LONGITUDE</title>
<ellipse fill="none" stroke="black" cx="2196" cy="-306" rx="70.39" ry="18"/>
<text text-anchor="middle" x="2196" y="-302.3" font-family="Times,serif" font-size="14.00">LONGITUDE</text>
</g>
<!-- DEV__POSITION&#45;&gt;DEV__POSITION__LONGITUDE -->
<g id="edge40" class="edge">
<title>DEV__POSITION&#45;&gt;DEV__POSITION__LONGITUDE</title>
<path fill="none" stroke="black" d="M2124.88,-361.12C2137.17,-351.76 2152.92,-339.78 2166.47,-329.47"/>
<polygon fill="black" stroke="black" points="2168.73,-332.15 2174.57,-323.31 2164.49,-326.58 2168.73,-332.15"/>
</g>
<!-- DEV__RF__RSSI -->
<g id="node39" class="node">
<title>DEV__RF__RSSI</title>
<ellipse fill="none" stroke="black" cx="2318" cy="-306" rx="33.6" ry="18"/>
<text text-anchor="middle" x="2318" y="-302.3" font-family="Times,serif" font-size="14.00">RSSI</text>
</g>
<!-- DEV__RF&#45;&gt;DEV__RF__RSSI -->
<g id="edge41" class="edge">
<title>DEV__RF&#45;&gt;DEV__RF__RSSI</title>
<path fill="none" stroke="black" d="M2352.02,-361.12C2346.58,-352.47 2339.73,-341.58 2333.61,-331.83"/>
<polygon fill="black" stroke="black" points="2336.54,-329.91 2328.25,-323.31 2330.61,-333.64 2336.54,-329.91"/>
</g>
<!-- DEV__RF__RSRP -->
<g id="node40" class="node">
<title>DEV__RF__RSRP</title>
<ellipse fill="none" stroke="black" cx="2407" cy="-306" rx="37.09" ry="18"/>
<text text-anchor="middle" x="2407" y="-302.3" font-family="Times,serif" font-size="14.00">RSRP</text>
</g>
<!-- DEV__RF&#45;&gt;DEV__RF__RSRP -->
<g id="edge42" class="edge">
<title>DEV__RF&#45;&gt;DEV__RF__RSRP</title>
<path fill="none" stroke="black" d="M2372.21,-361.12C2377.77,-352.47 2384.77,-341.58 2391.04,-331.83"/>
<polygon fill="black" stroke="black" points="2394.05,-333.61 2396.52,-323.31 2388.17,-329.83 2394.05,-333.61"/>
</g>
<!-- DEV__RF__RSRQ -->
<g id="node41" class="node">
<title>DEV__RF__RSRQ</title>
<ellipse fill="none" stroke="black" cx="2500" cy="-306" rx="38.19" ry="18"/>
<text text-anchor="middle" x="2500" y="-302.3" font-family="Times,serif" font-size="14.00">RSRQ</text>
</g>
<!-- DEV__RF&#45;&gt;DEV__RF__RSRQ -->
<g id="edge43" class="edge">
<title>DEV__RF&#45;&gt;DEV__RF__RSRQ</title>
<path fill="none" stroke="black" d="M2382.96,-366.37C2404.85,-355.26 2439.55,-337.66 2465.49,-324.5"/>
<polygon fill="black" stroke="black" points="2467.28,-327.52 2474.62,-319.88 2464.11,-321.28 2467.28,-327.52"/>
</g>
<!-- DEV__RF__SINR -->
<g id="node42" class="node">
<title>DEV__RF__SINR</title>
<ellipse fill="none" stroke="black" cx="2591" cy="-306" rx="35.19" ry="18"/>
<text text-anchor="middle" x="2591" y="-302.3" font-family="Times,serif" font-size="14.00">SINR</text>
</g>
<!-- DEV__RF&#45;&gt;DEV__RF__SINR -->
<g id="edge44" class="edge">
<title>DEV__RF&#45;&gt;DEV__RF__SINR</title>
<path fill="none" stroke="black" d="M2382.64,-366.37C2387.59,-364.07 2392.92,-361.79 2398,-360 2462.25,-337.34 2481.97,-344.32 2547,-324 2549.55,-323.2 2552.16,-322.33 2554.79,-321.42"/>
<polygon fill="black" stroke="black" points="2556,-324.7 2564.21,-318 2553.61,-318.12 2556,-324.7"/>
</g>
<!-- MODEL -->
<g id="node43" class="node">
<title>MODEL</title>
<ellipse fill="none" stroke="black" cx="2316" cy="-450" rx="47.39" ry="18"/>
<text text-anchor="middle" x="2316" y="-446.3" font-family="Times,serif" font-size="14.00">MODEL</text>
</g>
<!-- MODEL__NUM -->
<g id="node44" class="node">
<title>MODEL__NUM</title>
<ellipse fill="none" stroke="black" cx="2443" cy="-378" rx="36" ry="18"/>
<text text-anchor="middle" x="2443" y="-374.3" font-family="Times,serif" font-size="14.00">NUM</text>
</g>
<!-- MODEL&#45;&gt;MODEL__NUM -->
<g id="edge45" class="edge">
<title>MODEL&#45;&gt;MODEL__NUM</title>
<path fill="none" stroke="black" d="M2341.7,-434.83C2361.53,-423.91 2389.08,-408.72 2410.45,-396.94"/>
<polygon fill="black" stroke="black" points="2412.41,-399.86 2419.48,-391.96 2409.03,-393.73 2412.41,-399.86"/>
</g>
<!-- MODEL__NUM__ENV -->
<g id="node45" class="node">
<title>MODEL__NUM__ENV</title>
<ellipse fill="none" stroke="black" cx="2676" cy="-306" rx="31.7" ry="18"/>
<text text-anchor="middle" x="2676" y="-302.3" font-family="Times,serif" font-size="14.00">ENV</text>
</g>
<!-- MODEL__NUM&#45;&gt;MODEL__NUM__ENV -->
<g id="edge46" class="edge">
<title>MODEL__NUM&#45;&gt;MODEL__NUM__ENV</title>
<path fill="none" stroke="black" d="M2470.42,-366.04C2476.18,-363.9 2482.26,-361.78 2488,-360 2552.25,-340.08 2571.08,-344.94 2635,-324 2637.29,-323.25 2639.62,-322.43 2641.97,-321.57"/>
<polygon fill="black" stroke="black" points="2643.46,-324.75 2651.51,-317.87 2640.92,-318.22 2643.46,-324.75"/>
</g>
<!-- MODEL__NUM__ENV__ATMO -->
<g id="node46" class="node">
<title>MODEL__NUM__ENV__ATMO</title>
<ellipse fill="none" stroke="black" cx="2676" cy="-234" rx="39.79" ry="18"/>
<text text-anchor="middle" x="2676" y="-230.3" font-family="Times,serif" font-size="14.00">ATMO</text>
</g>
<!-- MODEL__NUM__ENV&#45;&gt;MODEL__NUM__ENV__ATMO -->
<g id="edge47" class="edge">
<title>MODEL__NUM__ENV&#45;&gt;MODEL__NUM__ENV__ATMO</title>
<path fill="none" stroke="black" d="M2676,-287.7C2676,-279.98 2676,-270.71 2676,-262.11"/>
<polygon fill="black" stroke="black" points="2679.5,-262.1 2676,-252.1 2672.5,-262.1 2679.5,-262.1"/>
</g>
<!-- MODEL__NUM__ENV__ATMO__SNOW -->
<g id="node47" class="node">
<title>MODEL__NUM__ENV__ATMO__SNOW</title>
<ellipse fill="none" stroke="black" cx="2676" cy="-162" rx="41.69" ry="18"/>
<text text-anchor="middle" x="2676" y="-158.3" font-family="Times,serif" font-size="14.00">SNOW</text>
</g>
<!-- MODEL__NUM__ENV__ATMO&#45;&gt;MODEL__NUM__ENV__ATMO__SNOW -->
<g id="edge48" class="edge">
<title>MODEL__NUM__ENV__ATMO&#45;&gt;MODEL__NUM__ENV__ATMO__SNOW</title>
<path fill="none" stroke="black" d="M2676,-215.7C2676,-207.98 2676,-198.71 2676,-190.11"/>
<polygon fill="black" stroke="black" points="2679.5,-190.1 2676,-180.1 2672.5,-190.1 2679.5,-190.1"/>
</g>
<!-- MODEL__NUM__ENV__ATMO__SNOW__HEIGHT -->
<g id="node48" class="node">
<title>MODEL__NUM__ENV__ATMO__SNOW__HEIGHT</title>
<ellipse fill="none" stroke="black" cx="2521" cy="-90" rx="50.09" ry="18"/>
<text text-anchor="middle" x="2521" y="-86.3" font-family="Times,serif" font-size="14.00">HEIGHT</text>
</g>
<!-- MODEL__NUM__ENV__ATMO__SNOW&#45;&gt;MODEL__NUM__ENV__ATMO__SNOW__HEIGHT -->
<g id="edge49" class="edge">
<title>MODEL__NUM__ENV__ATMO__SNOW&#45;&gt;MODEL__NUM__ENV__ATMO__SNOW__HEIGHT</title>
<path fill="none" stroke="black" d="M2648.29,-148.49C2623.75,-137.4 2587.67,-121.11 2560.18,-108.69"/>
<polygon fill="black" stroke="black" points="2561.4,-105.41 2550.85,-104.48 2558.52,-111.79 2561.4,-105.41"/>
</g>
<!-- MODEL__NUM__ENV__ATMO__SNOW__INSULATION -->
<g id="node50" class="node">
<title>MODEL__NUM__ENV__ATMO__SNOW__INSULATION</title>
<ellipse fill="none" stroke="black" cx="2676" cy="-90" rx="72.59" ry="18"/>
<text text-anchor="middle" x="2676" y="-86.3" font-family="Times,serif" font-size="14.00">INSULATION</text>
</g>
<!-- MODEL__NUM__ENV__ATMO__SNOW&#45;&gt;MODEL__NUM__ENV__ATMO__SNOW__INSULATION -->
<g id="edge50" class="edge">
<title>MODEL__NUM__ENV__ATMO__SNOW&#45;&gt;MODEL__NUM__ENV__ATMO__SNOW__INSULATION</title>
<path fill="none" stroke="black" d="M2676,-143.7C2676,-135.98 2676,-126.71 2676,-118.11"/>
<polygon fill="black" stroke="black" points="2679.5,-118.1 2676,-108.1 2672.5,-118.1 2679.5,-118.1"/>
</g>
<!-- MODEL__NUM__ENV__ATMO__SNOW__MELT -->
<g id="node52" class="node">
<title>MODEL__NUM__ENV__ATMO__SNOW__MELT</title>
<ellipse fill="none" stroke="black" cx="2825" cy="-90" rx="38.19" ry="18"/>
<text text-anchor="middle" x="2825" y="-86.3" font-family="Times,serif" font-size="14.00">MELT</text>
</g>
<!-- MODEL__NUM__ENV__ATMO__SNOW&#45;&gt;MODEL__NUM__ENV__ATMO__SNOW__MELT -->
<g id="edge51" class="edge">
<title>MODEL__NUM__ENV__ATMO__SNOW&#45;&gt;MODEL__NUM__ENV__ATMO__SNOW__MELT</title>
<path fill="none" stroke="black" d="M2703.33,-148.16C2727.57,-136.77 2763.14,-120.06 2789.56,-107.65"/>
<polygon fill="black" stroke="black" points="2791.28,-110.71 2798.84,-103.29 2788.3,-104.37 2791.28,-110.71"/>
</g>
<!-- MODEL__NUM__ENV__ATMO__SNOW__HEIGHT__SNOW_MAUS -->
<g id="node49" class="node">
<title>MODEL__NUM__ENV__ATMO__SNOW__HEIGHT__SNOW_MAUS</title>
<ellipse fill="none" stroke="black" cx="2507" cy="-18" rx="75.29" ry="18"/>
<text text-anchor="middle" x="2507" y="-14.3" font-family="Times,serif" font-size="14.00">SNOW_MAUS</text>
</g>
<!-- MODEL__NUM__ENV__ATMO__SNOW__HEIGHT&#45;&gt;MODEL__NUM__ENV__ATMO__SNOW__HEIGHT__SNOW_MAUS -->
<g id="edge52" class="edge">
<title>MODEL__NUM__ENV__ATMO__SNOW__HEIGHT&#45;&gt;MODEL__NUM__ENV__ATMO__SNOW__HEIGHT__SNOW_MAUS</title>
<path fill="none" stroke="black" d="M2517.54,-71.7C2516,-63.98 2514.14,-54.71 2512.42,-46.11"/>
<polygon fill="black" stroke="black" points="2515.81,-45.22 2510.42,-36.1 2508.95,-46.6 2515.81,-45.22"/>
</g>
<!-- MODEL__NUM__ENV__ATMO__SNOW__INSULATION__SNOW_MAUS -->
<g id="node51" class="node">
<title>MODEL__NUM__ENV__ATMO__SNOW__INSULATION__SNOW_MAUS</title>
<ellipse fill="none" stroke="black" cx="2676" cy="-18" rx="75.29" ry="18"/>
<text text-anchor="middle" x="2676" y="-14.3" font-family="Times,serif" font-size="14.00">SNOW_MAUS</text>
</g>
<!-- MODEL__NUM__ENV__ATMO__SNOW__INSULATION&#45;&gt;MODEL__NUM__ENV__ATMO__SNOW__INSULATION__SNOW_MAUS -->
<g id="edge53" class="edge">
<title>MODEL__NUM__ENV__ATMO__SNOW__INSULATION&#45;&gt;MODEL__NUM__ENV__ATMO__SNOW__INSULATION__SNOW_MAUS</title>
<path fill="none" stroke="black" d="M2676,-71.7C2676,-63.98 2676,-54.71 2676,-46.11"/>
<polygon fill="black" stroke="black" points="2679.5,-46.1 2676,-36.1 2672.5,-46.1 2679.5,-46.1"/>
</g>
<!-- MODEL__NUM__ENV__ATMO__SNOW__MELT__SNOW_MAUS -->
<g id="node53" class="node">
<title>MODEL__NUM__ENV__ATMO__SNOW__MELT__SNOW_MAUS</title>
<ellipse fill="none" stroke="black" cx="2845" cy="-18" rx="75.29" ry="18"/>
<text text-anchor="middle" x="2845" y="-14.3" font-family="Times,serif" font-size="14.00">SNOW_MAUS</text>
</g>
<!-- MODEL__NUM__ENV__ATMO__SNOW__MELT&#45;&gt;MODEL__NUM__ENV__ATMO__SNOW__MELT__SNOW_MAUS -->
<g id="edge54" class="edge">
<title>MODEL__NUM__ENV__ATMO__SNOW__MELT&#45;&gt;MODEL__NUM__ENV__ATMO__SNOW__MELT__SNOW_MAUS</title>
<path fill="none" stroke="black" d="M2829.84,-72.05C2832.07,-64.26 2834.77,-54.82 2837.26,-46.08"/>
<polygon fill="black" stroke="black" points="2840.68,-46.85 2840.06,-36.28 2833.95,-44.93 2840.68,-46.85"/>
</g>
<!-- OBJ -->
<g id="node54" class="node">
<title>OBJ</title>
<ellipse fill="none" stroke="black" cx="2574" cy="-450" rx="28.7" ry="18"/>
<text text-anchor="middle" x="2574" y="-446.3" font-family="Times,serif" font-size="14.00">OBJ</text>
</g>
<!-- OBJ__LIQUIDLEVEL -->
<g id="node55" class="node">
<title>OBJ__LIQUIDLEVEL</title>
<ellipse fill="none" stroke="black" cx="2574" cy="-378" rx="77.19" ry="18"/>
<text text-anchor="middle" x="2574" y="-374.3" font-family="Times,serif" font-size="14.00">LIQUIDLEVEL</text>
</g>
<!-- OBJ&#45;&gt;OBJ__LIQUIDLEVEL -->
<g id="edge55" class="edge">
<title>OBJ&#45;&gt;OBJ__LIQUIDLEVEL</title>
<path fill="none" stroke="black" d="M2574,-431.7C2574,-423.98 2574,-414.71 2574,-406.11"/>
<polygon fill="black" stroke="black" points="2577.5,-406.1 2574,-396.1 2570.5,-406.1 2577.5,-406.1"/>
</g>
<!-- OBJ__WEIGHT -->
<g id="node56" class="node">
<title>OBJ__WEIGHT</title>
<ellipse fill="none" stroke="black" cx="2721" cy="-378" rx="51.19" ry="18"/>
<text text-anchor="middle" x="2721" y="-374.3" font-family="Times,serif" font-size="14.00">WEIGHT</text>
</g>
<!-- OBJ&#45;&gt;OBJ__WEIGHT -->
<g id="edge56" class="edge">
<title>OBJ&#45;&gt;OBJ__WEIGHT</title>
<path fill="none" stroke="black" d="M2596.33,-438.37C2619.17,-427.49 2655.12,-410.37 2682.55,-397.31"/>
<polygon fill="black" stroke="black" points="2684.34,-400.33 2691.87,-392.87 2681.33,-394.01 2684.34,-400.33"/>
</g>
<!-- ROOT -->
<g id="node57" class="node">
<title>ROOT</title>
<ellipse fill="none" stroke="black" cx="2216" cy="-522" rx="38.19" ry="18"/>
<text text-anchor="middle" x="2216" y="-518.3" font-family="Times,serif" font-size="14.00">ROOT</text>
</g>
<!-- ROOT&#45;&gt;ENV -->
<g id="edge1" class="edge">
<title>ROOT&#45;&gt;ENV</title>
<path fill="none" stroke="black" d="M2178.19,-518.89C1994.74,-508.63 1198.39,-464.1 1005.97,-453.35"/>
<polygon fill="black" stroke="black" points="1005.89,-449.84 995.71,-452.77 1005.5,-456.83 1005.89,-449.84"/>
</g>
<!-- ROOT&#45;&gt;DEV -->
<g id="edge2" class="edge">
<title>ROOT&#45;&gt;DEV</title>
<path fill="none" stroke="black" d="M2193.87,-507.17C2176.48,-496.3 2152.11,-481.07 2133.13,-469.21"/>
<polygon fill="black" stroke="black" points="2134.91,-466.19 2124.57,-463.86 2131.2,-472.12 2134.91,-466.19"/>
</g>
<!-- ROOT&#45;&gt;MODEL -->
<g id="edge3" class="edge">
<title>ROOT&#45;&gt;MODEL</title>
<path fill="none" stroke="black" d="M2236.72,-506.5C2250.91,-496.56 2269.96,-483.23 2285.83,-472.12"/>
<polygon fill="black" stroke="black" points="2288.08,-474.81 2294.27,-466.21 2284.07,-469.08 2288.08,-474.81"/>
</g>
<!-- ROOT&#45;&gt;OBJ -->
<g id="edge4" class="edge">
<title>ROOT&#45;&gt;OBJ</title>
<path fill="none" stroke="black" d="M2250.65,-514.22C2318.25,-501.01 2467.17,-471.89 2536.78,-458.28"/>
<polygon fill="black" stroke="black" points="2537.71,-461.66 2546.85,-456.31 2536.36,-454.79 2537.71,-461.66"/>
</g>
</g>
</svg>
